# xmcd
#
# Track frame offsets:
#	150
#	13358
#	28364
#	41766
#	55752
#	71666
#	87247
#	108069
#	115244
#	129527
#	141789
#
# Disc length: 2196 seconds
#
# Revision: 1
# Processed by: cddbd v1.4PL0 Copyright (c) Steve Scherf et al.
# Submitted via: audiograbber 1.81.02
#
DISCID=9b08920b
DTITLE=Pullman Gitty - Send A Little Love
DYEAR=2002
DGENRE=Country
TTITLE0=Hi Diddle Diddle
TTITLE1=Proud Mary
TTITLE2=Send A Little Love
TTITLE3=Broken Hearted Girl
TTITLE4=Will The Circle Be Unbroken
TTITLE5=Nightingale
TTITLE6=Piece Of My Heart
TTITLE7=Mercedes Benz
TTITLE8=Banks Of The Ohio
TTITLE9=Bad Leroy Brown
TTITLE10=The Rose
EXTD=
EXTT0=
EXTT1=
EXTT2=
EXTT3=
EXTT4=
EXTT5=
EXTT6=
EXTT7=
EXTT8=
EXTT9=
EXTT10=
PLAYORDER=
